<?xml version="1.0" encoding="UTF-8"?>
<svg width="196px" height="196px" viewBox="0 0 196 196" version="1.1" xmlns="http://www.w3.org/2000/svg" xmlns:xlink="http://www.w3.org/1999/xlink">
    <title>画板</title>
    <defs>
        <polygon id="path-1" points="0 122 480.506 122 480.506 0.308 0 0.308"></polygon>
    </defs>
    <g id="画板" stroke="none" stroke-width="1" fill="none" fill-rule="evenodd">
        <path d="M188,100 L188,161.002678 L153.662352,181 L105,181 L105,100 L188,100 Z M98,14 C138.894737,14 172,27.9972193 172,45.1049318 L172,87.8742131 L164.210526,87.8742131 L164.210526,58.7133395 C152.136842,68.8224424 127.210526,75.821052 98,75.821052 C68.7894737,75.821052 43.8631579,68.8224424 31.7894737,58.7133395 L31.7894737,80.0979802 C31.7894737,87.0965898 54.3789474,101.093809 90.2105263,103.037867 L90.2105263,111.202912 C64.5052632,110.036477 42.6947368,102.649056 31.7894737,93.3175762 L31.7894737,115.091028 C31.7894737,122.47845 54.3789474,136.475669 90.2105263,138.030916 L90.2105263,145.807149 C64.5052632,144.640714 42.6947368,137.253292 31.7894737,127.921813 L31.7894737,150.084077 C31.7894737,157.349271 54.2271575,171.402206 90.2090785,173.21789 L90.2097392,180.999995 C52.982198,179.187655 24,164.635866 24,150.084077 L24,41.2168154 C28.2842105,25.6643494 59.8315789,14 98,14 Z M180.095238,107.714286 L112.904762,107.714286 L112.904762,173.285714 L151.48,173.285714 L180.095238,156.622857 L180.095238,107.714286 Z M170.026356,142.96184 L170.026356,151.83384 L146.312539,165.025845 L122.598356,151.83384 L122.598356,142.96184 L146.312539,156.154416 L170.026356,142.96184 Z M170.026356,127.14884 L170.026356,136.17384 L146.312539,149.597274 L122.598356,136.17384 L122.598356,127.14884 L146.312539,140.340131 L170.026356,127.14884 Z M146.5,117.680254 L160.473777,125.071429 L146.5,132.678825 L132.526223,125.071429 L146.5,117.680254 Z M98,21.776233 C57.8842105,21.776233 31.7894737,35.3846406 31.7894737,45.1049318 C31.7894737,54.825223 57.4947368,68.4336307 98,68.4336307 C138.505263,68.4336307 164.210526,54.4364114 164.210526,45.1049318 C164.210526,35.7734523 138.505263,21.776233 98,21.776233 Z" id="形状结合" fill="#00A4FF" fill-rule="nonzero"></path>
    </g>
</svg>